<svg xmlns="http://www.w3.org/2000/svg" width="300" height="300"><path d="M0 0h300.318v300.636H0z"/><path fill="#fff" d="M61.97 160.805h22.246v22.881H61.97zM84.216 183.686h22.246v22.881H84.216zM106.462 206.568h22.246v22.881h-22.246zM173.199 206.568h22.246v22.881h-22.246zM195.445 183.686h22.246v22.881h-22.246zM217.691 160.805h22.246v22.881h-22.246zM239.936 95.021h22.246v65.784h-22.246zM39.725 95.021h22.246v65.784H39.725zM61.97 72.14h22.246v22.881H61.97zM217.691 72.14h22.246v22.881h-22.246zM128.708 229.449H173.2v22.881h-44.492z"/><path fill="#ba242f" fill-opacity=".941" d="M61.97 95.021h22.246V72.14h44.492V95.02h44.491V72.14h44.492V95.02h22.245v65.784h-22.245v22.881h-22.246v22.882h-22.246v22.881h-44.491v-22.881h-22.246v-22.882H84.216l-.238-23.199H61.97z"/><path fill="#fff" d="M84.216 49.258h44.492v22.881H84.216zM128.708 72.14H173.2v22.881h-44.492zM173.199 49.258h44.492v22.881h-44.492z"/></svg>